<svg xmlns="http://www.w3.org/2000/svg" viewBox="0 0 261.5 314.42"><defs><style>.a{fill:#f5f5f5;}.a,.b,.c,.e,.f{fill-rule:evenodd;}.b{fill:#afc422;}.c{fill:#156a31;}.d{fill:#52a939;}.e{fill:#703e21;}.f{fill:#ab542c;}</style></defs><polygon class="a" points="236.04 0 0.09 0.62 0.77 278.79 118.86 314.42 236.72 278.16 236.04 0"/><polygon class="b" points="218.69 197.38 111.57 182.92 27.84 193.41 27.52 268.92 118.2 301.55 219 263.71 218.69 197.38"/><polygon class="c" points="7.26 201.54 117.18 188.96 227.99 205.85 231.02 246.67 115.4 290.35 6.95 255.15 7.26 201.54"/><path class="d" d="M117.21,269.63l-101-29.82c-1.41-.11-2.46-.71-2.46-2.27V16.89c0-1.75.54-3.14,2.29-3.14h204c1.79,0,2.3,1.39,2.3,3.14V237.54c0,1.56-1,2.16-2.47,2.27l-101,29.82A2.9,2.9,0,0,1,117.21,269.63Zm.85-249.56H20v214.3l98,28.94c17.89-5.27,78.35-23.13,98-28.94V20.07Z"/><path class="e" d="M37.84,73.19l-8.53-3.88-10.43-.77,10.43.77-.45-10-10,9.18L6.69,77,.06,81.44,0,85,7.06,88.5l16.1,5L37.84,73.19,65.48,104,98.56,112h0l66.33-14.12,66.76,34.21L190,110.75l50.23-20,21.32,5.38L254,114.46,190,110.75,254,114.46l-22.36,17.66-73.51-14.43,6.75-19.78-13.55,39.74,26.48,9.1-37.68,23.84L113.47,133h0l-15.84,8.39h0L77.1,152.28,43,161l-6.55,8.56-8,1.56,1.19-6.72,25.37-17,4.71-2L43.29,116.22,23.16,93.54ZM206.31,171l2.21,6.88-6.64-.9L166,154.23l11.82-7.48,20.24,25.4Z"/><polygon class="f" points="37.84 73.19 29.31 69.31 18.88 68.54 6.69 77.02 7.06 88.5 23.16 93.54 37.84 73.19"/><polygon class="e" points="6.69 77.02 0.06 81.44 0 84.95 7.06 88.5 6.69 77.02"/><polygon class="f" points="97.63 141.42 65.48 103.97 23.16 93.54 43.28 116.22 59.73 145.36 97.63 141.42"/><polygon class="e" points="77.1 152.28 43.03 160.98 29.65 164.38 55.02 147.37 59.73 145.36 97.63 141.42 77.1 152.28"/><polygon class="e" points="65.48 103.97 98.56 112.03 113.47 133.03 97.63 141.42 65.48 103.97"/><polygon class="f" points="140.15 170.59 98.56 112.03 164.89 97.91 140.15 170.59"/><polygon class="e" points="177.82 146.75 151.34 137.65 140.15 170.59 177.82 146.75"/><polygon class="f" points="201.88 176.97 166 154.23 177.82 146.75 201.88 176.97"/><polygon class="e" points="158.15 117.69 231.65 132.12 164.89 97.91 158.15 117.69"/><polygon class="f" points="254.01 114.46 189.95 110.75 231.65 132.12 254.01 114.46"/><polygon class="e" points="240.18 90.77 189.95 110.75 254.01 114.46 240.18 90.77"/><polygon class="f" points="240.18 90.77 254.01 114.46 261.5 96.15 240.18 90.77"/><polygon class="e" points="206.31 170.99 208.52 177.87 201.88 176.97 198.06 172.15 206.31 170.99"/><polygon class="f" points="28.46 171.1 29.65 164.38 43.03 160.98 36.48 169.54 28.46 171.1"/><polygon class="e" points="37.84 73.19 65.48 103.97 23.16 93.54 37.84 73.19"/><polygon class="e" points="29.31 69.31 28.86 59.36 18.88 68.54 29.31 69.31"/></svg>