<svg xmlns="http://www.w3.org/2000/svg" viewBox="0 0 264.59 502.05"><defs><style>.a{fill:#ab542c;}.a,.b,.c{fill-rule:evenodd;}.b{fill:#703e21;}.c{fill:#572c14;}</style></defs><polygon class="a" points="222.58 402.86 240.8 397.99 247.58 403.09 246.3 438.49 222.58 402.86"/><polygon class="b" points="214.92 409.01 194.15 437.02 226.8 430.02 232.53 417.8 222.58 402.86 214.92 409.01"/><polygon class="a" points="186.75 439.54 194.15 437.02 226.8 430.02 242.7 433.05 246.3 438.49 213.02 497.43 186.75 439.54"/><polygon class="b" points="187.54 362.86 212.03 373.86 206.39 393.17 187.54 362.86"/><polygon class="a" points="200.81 428.03 195.16 411.82 206.62 407.6 212.66 412.07 200.81 428.03"/><polygon class="a" points="212.03 373.86 223.03 375.56 228.42 379.96 235.98 386.08 222.58 402.86 214.87 409.01 212.66 412.07 206.53 407.6 206.39 393.17 212.03 373.86"/><polygon class="b" points="231.53 367.2 228.42 379.96 235.98 386.08 231.53 367.2"/><polygon class="a" points="226.43 367.94 236.92 313.23 238.19 360.31 226.43 367.94"/><path class="b" d="M233.55,296.48c-1.28,3.2-11.26,45.61-11.26,45.61l7.51,8.22Z"/><polygon class="b" points="221.61 375.37 222.21 357.76 208.63 358.19 203.33 369.95 212.03 373.86 221.61 375.37"/><polygon class="b" points="246.3 438.49 259.94 439.71 264.59 502.05 213.02 497.43 246.3 438.49"/><polygon class="b" points="186.75 439.54 176.82 485.09 213.02 497.43 186.75 439.54"/><path class="a" d="M0,492.29c0-3.82,2.75-39.65,2.75-39.65s22.9-10.8,22.48-9.33S0,492.29,0,492.29Z"/><polygon class="b" points="74.83 448.84 25.09 443.17 0 492.29 17.38 499.3 74.83 448.84"/><polygon class="a" points="81.21 450.31 82.03 474.27 17.38 499.3 74.83 448.84 81.21 450.31"/><polygon class="b" points="21.4 419.36 12.53 448.13 25.23 443.31 21.4 419.36"/><path class="a" d="M43,414.48c-.62,0-21.63,4.88-21.63,4.88l3.83,23.95,19.39,2.07Z"/><polygon class="b" points="58.42 422.22 43.37 420.86 44.62 445.38 58.51 446.97 58.42 422.22"/><polygon class="b" points="43.03 414.48 39.97 399.94 44.53 392.86 43.03 414.48"/><polygon class="a" points="58.42 422.22 61.26 395.72 57.77 388.09 43.99 400.68 43.03 414.48 43.37 420.86 58.42 422.22"/><polygon class="b" points="44.53 392.86 54.14 384.46 66.78 373.47 57.26 388.55 43.99 400.68 44.53 392.86"/><polygon class="a" points="51.08 378.23 45.38 380.78 44.53 392.86 53.83 384.75 51.08 378.23"/><polygon class="c" points="41.61 337.64 30.36 341.26 45.38 380.78 41.61 337.64"/><polygon class="a" points="34.61 388.75 34.24 351.5 41.53 370.66 34.61 388.75"/><polygon class="b" points="81.21 450.31 85.61 407.51 191.2 400.08 82.03 474.27 81.21 450.31"/><polygon class="a" points="178.55 477.13 186.75 439.54 191.2 400.08 82.03 474.27 178.55 477.13"/><polygon class="a" points="90.31 407.17 90.91 401.16 182.27 372.73 191.2 400.08 90.31 407.17"/><polygon class="b" points="101.99 397.7 103.18 378.26 182.27 372.73 101.99 397.7"/><polygon class="a" points="184.19 334.57 106.58 343.45 95.13 344.75 103.18 378.26 182.27 372.73 184.19 334.57"/><path class="a" d="M112.11,251s61.48-11.45,61.91-8.9,3.06,93.26,3.06,93.26Z"/><polygon class="b" points="104.12 343.73 112.11 251.04 177.08 335.4 104.12 343.73"/><polygon class="a" points="115.06 241.49 133.71 27.98 157.47 22.05 115.06 241.49"/><polygon class="b" points="157.47 22.05 115.85 237.4 175.92 229.84 157.47 22.05"/><path class="b" d="M135,19.93S146-.2,147.29,0s14.85,15.71,14.85,15.71Z"/></svg>