<svg xmlns="http://www.w3.org/2000/svg" viewBox="0 0 319.66 322.44"><defs><style>.a{fill:#703e21;}.a,.b,.c{fill-rule:evenodd;}.b{fill:#ab542c;}.c{fill:#572c14;}</style></defs><polygon class="a" points="8.36 214.24 171.58 193.66 249 247.1 8.36 214.24"/><path class="a" d="M13.58,297.67C12.27,294.8,0,224.16,0,224.16l8.36-9.92L249,247.1l.79,25.28Z"/><polygon class="b" points="319.66 277.34 249 247.1 249.79 272.38 319.66 277.34"/><polygon class="a" points="26.56 296.28 30.78 322.44 153.07 321.39 26.56 296.28"/><polygon class="b" points="249.79 272.38 26.56 296.28 153.07 321.39 249.79 272.38"/><polygon class="b" points="13.24 213.65 11.03 201.8 171.58 193.66 13.24 213.65"/><polygon class="a" points="57.6 110.58 43.77 195.05 91.22 120.76 57.6 110.58"/><polygon class="b" points="26.45 201 47.34 173.37 45.69 183.4 37.67 200.44 26.45 201"/><polygon class="b" points="53.89 133.31 52.78 133.4 27.61 135.1 39.88 146.04 51.48 147.94 53.89 133.31"/><polygon class="a" points="35.46 166.14 27.61 135.1 39.88 146.04 35.46 166.14"/><polygon class="b" points="45.5 171.89 38.3 153.21 35.46 166.14 40.28 176.31 45.5 171.89"/><polygon class="b" points="57.6 110.58 32.99 65.51 59.84 62.39 57.6 110.58"/><polygon class="a" points="90.99 82.46 59.84 62.39 57.6 110.58 90.99 82.46"/><path class="a" d="M33,65.51,9.67,90.79s33.62,37.42,33.76,34.95S33,65.51,33,65.51Z"/><polygon class="a" points="100.12 74.64 90.99 82.46 91.22 120.76 104.29 92.49 100.12 74.64"/><polygon class="b" points="106.24 124.44 88.38 146.58 85.69 129.43 106.24 124.44"/><polygon class="b" points="104.29 92.49 91.22 120.76 106.24 124.44 104.29 92.49"/><polygon class="b" points="85.69 129.43 91.22 120.76 106.24 124.44 85.69 129.43"/><polygon class="b" points="100.12 74.64 115.51 52.87 140.29 62.5 104.29 92.49 100.12 74.64"/><polygon class="a" points="149.3 90.11 140.29 62.5 104.29 92.49 149.3 90.11"/><polygon class="b" points="115.51 52.87 120.36 20.49 162.99 27.92 115.51 52.87"/><polygon class="a" points="140.29 62.5 162.99 27.92 115.51 52.87 140.29 62.5"/><polygon class="c" points="154.74 26.48 166.11 22.59 176.94 24.66 162.99 27.92 154.74 26.48"/><polygon class="b" points="178.61 1.3 166.11 22.59 176.94 24.66 178.61 1.3"/><polygon class="b" points="181.08 3.26 180.57 25.03 200.89 73.28 181.08 3.26"/><polygon class="a" points="127.39 21.71 118.23 7.03 146.92 0 134.53 22.96 127.39 21.71"/><polygon class="b" points="120.36 20.49 95.7 41.58 103.12 52.27 120.36 20.49"/><polygon class="a" points="116.7 44.87 103.12 52.27 120.36 20.49 116.7 44.87"/><polygon class="a" points="95.7 41.58 89.97 76.14 103.12 52.27 95.7 41.58"/><polygon class="a" points="97.31 135.5 140.54 144.82 105.11 105.85 106.24 124.44 97.31 135.5"/><polygon class="a" points="149.3 90.11 177.42 97.14 140.54 144.82 149.3 90.11"/><polygon class="b" points="104.29 92.49 149.3 90.11 140.54 144.82 105.11 105.85 104.29 92.49"/><polygon class="b" points="177.42 97.14 179.91 101.96 192.67 126.62 140.54 144.82 177.42 97.14"/><polygon class="a" points="217.56 96.89 180.76 103.64 186.89 115.43 217.56 96.89"/><polygon class="b" points="219.8 144.2 217.56 96.89 194.88 143.29 219.8 144.2"/><polygon class="a" points="169.28 134.79 200.04 155.74 140.54 144.82 169.12 134.84 169.28 134.79"/><polygon class="b" points="159.7 187.99 197.57 155.31 175.95 151.31 145.62 190.6 159.7 187.99"/><polygon class="b" points="91.22 120.76 90.99 82.46 57.6 110.58 91.22 120.76"/></svg>