<svg xmlns="http://www.w3.org/2000/svg" viewBox="0 0 220.85 107.12"><defs><style>.cls-1{fill:#fefefe;}</style></defs><g id="Слой_2" data-name="Слой 2"><g id="эфэ_уфа_ufa_450_белые_вертикально" data-name="эфэ, уфа, ufa 450 белые вертикально"><g id="UFA_450" data-name="UFA 450"><path id="UF" class="cls-1" d="M65.1,27.82c0,8.6-8.2,16.4-16.8,16.4H16.9C8.5,44.22,0,36.32,0,27.82V2.32C0,.72,1.4.12,3,.12s3,.61,3,2.2V27c0,5.3,5.8,11.1,11,11.1H48.4c5.8,0,10.7-5.6,10.7-11.5V2.32c0-1.6,1.4-2.2,3-2.2s3,.61,3,2.2v25.5ZM95.6.12h46.7c1.6,0,2.2,1.3,2.2,3s-.5,3-2.2,3H95.6c-5.5,0-10.9,5.61-10.9,11.11v1.69h55c1.6,0,2.2,1.4,2.2,3s-.6,3-2.2,3h-55v17c0,1.61-1.4,2.2-3,2.2s-3-.5-3-2.2V16.42C78.8,7.92,87.2.12,95.6.12Z"/><path id="A" class="cls-1" d="M149.9,39.62c7.4-9.89,17.9-25,25.4-34.89,4.7-6.31,15.2-6.31,19.9,0,7.4,9.8,17.8,24.8,25.2,34.69,1,1.31.2,2.61-1.1,3.61s-2.7,1.39-3.7.1c-7.1-9.4-17-23.9-24.1-33.3-3.4-4.5-9.2-4.5-12.5,0-7.1,9.3-17.3,24-24.3,33.4-1,1.3-2.4.89-3.7-.11S148.9,40.92,149.9,39.62Zm33-14.7h4.6c1.6,0,2.2,1.3,2.2,3s-.6,3-2.2,3h-4.6c-1.6,0-2.2-1.3-2.2-3S181.3,24.92,182.9,24.92Z"/><path id="_0" data-name="0" class="cls-1" d="M170.1,63h31.4c8.6,0,16.8,7.8,16.8,16.4v11.4c0,8.5-8.2,16.3-16.8,16.3H170.1c-8.4,0-16.9-7.9-16.9-16.3V79.42C153.2,70.92,161.7,63,170.1,63Zm-2.7,18.9H204c1.6,0,2.2,1.4,2.2,3s-.5,3-2.2,3H167.4c-1.6,0-2.2-1.3-2.2-3S165.8,81.92,167.4,81.92ZM201.5,69H170.1c-5.6,0-10.9,5.6-10.9,11.1v9.8c0,5.3,5.7,10.8,10.9,10.8h31.4c5.8,0,10.7-5.3,10.7-11.2v-9.4C212.2,74.52,207.1,69,201.5,69Z"/><path id="_4" data-name="4" class="cls-1" d="M6.1,65.22V77a4.92,4.92,0,0,0,5,4.9h48V65.22c0-1.7,1.3-2.2,3-2.2s3,.5,3,2.2v39.7c0,1.7-1.3,2.2-3,2.2s-3-.5-3-2.2v-17H11.4C5.4,87.92,0,83.22,0,77V65.22C0,63.52,1.3,63,3,63S6.1,63.52,6.1,65.22Z"/><path id="_5" data-name="5" class="cls-1" d="M143.8,95.42c0,6.1-4.8,11.7-11,11.7H83.5c-1.7,0-2.2-1.29-2.2-3s.5-3,2.2-3h49.7c2.7,0,4.9-3.1,4.9-5.7v-2c0-2.6-2.1-5.5-4.9-5.5H88.6a9.17,9.17,0,0,1-6.1-2.4,10.59,10.59,0,0,1-3.7-8.3V65.72c0-2.7,2-2.7,4.1-2.7H139c1.7,0,2.2,1.3,2.2,3s-.5,3-2.2,3H84.9v9.1c0,2.4,2.1,3.8,4.3,3.8h43.7c6.2,0,11,5.5,11,11.5l-.1,2Z"/></g></g></g></svg>