<svg xmlns="http://www.w3.org/2000/svg" viewBox="0 0 380.9 36.7"><defs><style>.cls-1{fill:#333;}</style></defs><g id="Слой_2" data-name="Слой 2"><g id="эфэ_уфа_ufa_450" data-name="эфэ, уфа, ufa 450"><g id="ufa"><path id="А" class="cls-1" d="M124.5,32.9c6.2-8.2,14.9-20.8,21.1-29,3.9-5.2,12.6-5.2,16.6,0,6.2,8.2,14.8,20.6,20.9,28.8.8,1.1.2,2.2-.9,3s-2.3,1.1-3.1,0c-5.8-7.8-14.1-19.9-20-27.6a6.26,6.26,0,0,0-8.7-1.7,5.51,5.51,0,0,0-1.7,1.7c-5.9,7.8-14.3,20-20.2,27.8-.8,1.1-2,.8-3.1,0S123.7,34,124.5,32.9ZM152,20.7h3.8c1.4,0,1.8,1.1,1.8,2.5s-.5,2.5-1.8,2.5H152c-1.4,0-1.8-1.1-1.8-2.5s.4-2.5,1.8-2.5Z"/><path id="UF" class="cls-1" d="M54,23c0,7.1-6.8,13.6-13.9,13.6H14C7,36.6,0,30.1,0,23V1.8C0,.4,1.1,0,2.5,0S5,.5,5,1.8V22.4c0,4.4,4.8,9.2,9.1,9.2H40.2c4.8,0,8.9-4.6,8.9-9.6V1.8C49.1.4,50.2,0,51.6,0s2.5.5,2.5,1.8L54,23ZM79.4,0h38.8c1.4,0,1.8,1.1,1.8,2.5S119.5,5,118.2,5H79.4c-4.6,0-9,4.6-9,9.3v1.4h45.8c1.4,0,1.8,1.1,1.8,2.5s-.5,2.5-1.8,2.5H70.4V34.8c0,1.4-1.1,1.8-2.5,1.8s-2.5-.5-2.5-1.8V13.6C65.4,6.5,72.4,0,79.4,0Z"/></g><path id="_0-3" data-name=" 0-3" class="cls-1" d="M340.9,0H367c7.1,0,13.9,6.5,13.9,13.6v9.5c0,7.1-6.8,13.6-13.9,13.6H340.9c-7,0-14-6.5-14-13.6V13.6C326.8,6.5,333.8,0,340.9,0Zm-2.3,15.7H369c1.4,0,1.8,1.1,1.8,2.5s-.5,2.5-1.8,2.5H338.6c-1.4,0-1.8-1.1-1.8-2.5S337.3,15.7,338.6,15.7ZM366.9,5H340.8c-4.6,0-9,4.6-9,9.3v8.1c0,4.4,4.7,9,9,9h26.1c4.8,0,8.9-4.4,8.9-9.3V14.3C375.9,9.5,371.6,5,366.9,5Z"/><path id="_4-3" data-name=" 4-3" class="cls-1" d="M207.2,1.8v9.8a4.06,4.06,0,0,0,4.1,4.1h39.9V1.8c0-1.4,1.1-1.8,2.5-1.8s2.5.4,2.5,1.8v33c0,1.4-1.1,1.8-2.5,1.8s-2.5-.5-2.5-1.8V20.7H211.6a9.26,9.26,0,0,1-9.4-9.1V1.8c0-1.4,1.1-1.8,2.5-1.8S207.2.4,207.2,1.8Z"/><path id="_5-3" data-name=" 5-3" class="cls-1" d="M320.3,27c0,5-4,9.7-9.1,9.7h-41c-1.4,0-1.8-1.1-1.8-2.5s.4-2.5,1.8-2.5h41.3c2.3,0,4.1-2.6,4.1-4.7V25.3c0-2.2-1.8-4.6-4.1-4.6h-37a7.44,7.44,0,0,1-5.1-2,8.64,8.64,0,0,1-3.1-6.9V2.3c0-2.3,1.6-2.3,3.4-2.3h46.6c1.4,0,1.8,1.1,1.8,2.5S317.7,5,316.3,5h-45v7.6c0,2,1.8,3.1,3.6,3.1h36.3c5.2,0,9.1,4.5,9.1,9.6Z"/></g></g></svg>