<svg xmlns="http://www.w3.org/2000/svg" viewBox="0 0 382.3 40.3"><defs><style>.cls-1{fill:#333;}</style></defs><g id="Слой_2" data-name="Слой 2"><g id="эфэ_уфа_ufa_450" data-name="эфэ, уфа, ufa 450"><path id="У" class="cls-1" d="M4.5,38.5c-1.4,0-1.8-1.2-1.8-2.6s.5-2.6,1.8-2.6H40c4.3,0,9-4.6,9-9V22.6H9.4a9.18,9.18,0,0,1-9.4-9V3.8C0,2.4,1.1,2,2.5,2S5,2.4,5,3.8v9.8a4.06,4.06,0,0,0,4.1,4.1H49V3.8C49,2.3,50.3,2,51.5,2c1.4,0,2.5.5,2.5,1.8V25.1c0,7-7,13.6-14,13.6C28.2,38.5,16.4,38.5,4.5,38.5Z"/><path id="A" class="cls-1" d="M125.9,34.7c6.2-8.2,14.9-20.8,21.1-29,3.9-5.2,12.6-5.2,16.6,0,6.2,8.2,14.8,20.7,20.9,28.9.8,1.1.2,2.1-.9,2.9s-2.3,1.1-3.1,0c-5.8-7.8-14.1-19.9-20-27.6a6.26,6.26,0,0,0-8.7-1.7,5.51,5.51,0,0,0-1.7,1.7c-5.9,7.8-14.3,20-20.2,27.8-.8,1.1-2,.8-3.1,0S125.1,35.8,125.9,34.7Zm27.5-12.2h3.8c1.4,0,1.8,1.1,1.8,2.5s-.5,2.5-1.8,2.5h-3.8c-1.4,0-1.8-1.1-1.8-2.5s.4-2.5,1.8-2.5Z"/><path id="_0-2" data-name=" 0-2" class="cls-1" d="M342.3,1.8h26.1c7.1,0,13.9,6.5,13.9,13.6v9.5c0,7.1-6.8,13.6-13.9,13.6H342.3c-7,0-14-6.5-14-13.6V15.4C328.2,8.4,335.2,1.8,342.3,1.8ZM340,17.5h30.4c1.4,0,1.8,1.1,1.8,2.5s-.5,2.5-1.8,2.5H340c-1.4,0-1.8-1.1-1.8-2.5S338.7,17.5,340,17.5ZM368.3,6.8H342.2c-4.6,0-9,4.6-9,9.3v8.1c0,4.4,4.7,9,9,9h26.1c4.8,0,8.9-4.4,8.9-9.4V16.1C377.3,11.4,373,6.8,368.3,6.8Z"/><path id="_4-2" data-name=" 4-2" class="cls-1" d="M208.6,3.7v9.8a4.06,4.06,0,0,0,4.1,4.1h39.9V3.7c0-1.4,1.1-1.8,2.5-1.8s2.5.4,2.5,1.8v33c0,1.4-1.1,1.8-2.5,1.8s-2.5-.5-2.5-1.8V22.6H213a9.18,9.18,0,0,1-9.4-9V3.8c0-1.4,1.1-1.8,2.5-1.8S208.6,2.3,208.6,3.7Z"/><path id="_5-2" data-name=" 5-2" class="cls-1" d="M321.7,28.8c0,5.1-4,9.7-9.1,9.7h-41c-1.4,0-1.8-1.1-1.8-2.5s.4-2.5,1.8-2.5h41.3c2.3,0,4.1-2.6,4.1-4.7V27.1c0-2.2-1.8-4.6-4.1-4.6h-37a7.44,7.44,0,0,1-5.1-2,8.64,8.64,0,0,1-3.1-6.9V4.1c0-2.3,1.6-2.3,3.4-2.3h46.6c1.4,0,1.8,1.1,1.8,2.5s-.4,2.5-1.8,2.5h-45v7.6c0,2,1.8,3.1,3.6,3.1h36.3c5.2,0,9.1,4.6,9.1,9.6Z"/><path id="ф-2" class="cls-1" d="M79.5,1.8H90C90,.3,91.2,0,92.5,0S95,.4,95,1.8h10.6c7.1,0,13.9,6.5,13.9,13.6v9.5c0,7.1-6.8,13.6-13.9,13.6H94.9c0,1.4-1.1,1.8-2.5,1.8s-2.5-.5-2.5-1.8H79.4c-7,0-14-6.5-14-13.6V15.4C65.4,8.4,72.4,1.8,79.5,1.8Zm15.4,5V33.2h10.6c4.8,0,8.9-4.4,8.9-9.4V16.1c0-4.7-4.2-9.3-8.9-9.3ZM90,33.2V6.8H79.5c-4.6,0-9,4.6-9,9.3v8.1c0,4.4,4.7,9,9,9Z"/></g></g></svg>