<svg xmlns="http://www.w3.org/2000/svg" viewBox="0 0 222.45 109.4"><defs><style>.cls-1{fill:#fefefe;}</style></defs><g id="Слой_2" data-name="Слой 2"><g id="эфэ_уфа_ufa_450_белые_вертикально" data-name="эфэ, уфа, ufa 450 белые вертикально"><g id="УФА_450" data-name="УФА 450"><path id="_0" data-name="0" class="cls-1" d="M171.5,65.2h31.4c8.6,0,16.8,7.8,16.8,16.4V93c0,8.6-8.2,16.4-16.8,16.4H171.5c-8.4,0-16.9-7.9-16.9-16.4V81.6C154.6,73.1,163,65.2,171.5,65.2Zm-2.7,18.9h36.6c1.7,0,2.2,1.4,2.2,3s-.6,3-2.2,3H168.8c-1.6,0-2.2-1.3-2.2-3S167.1,84.1,168.8,84.1Zm34-12.9H171.4c-5.5,0-10.9,5.6-10.9,11.2v9.8c0,5.3,5.7,10.9,10.9,10.9h31.4c5.8,0,10.7-5.3,10.7-11.3V82.4C213.6,76.7,208.5,71.2,202.8,71.2Z"/><path id="_5" data-name="5" class="cls-1" d="M143.5,97.6c0,6.1-4.8,11.7-11,11.7H83.2c-1.7,0-2.2-1.3-2.2-3s.5-3,2.2-3h49.7c2.7,0,4.9-3.1,4.9-5.7v-2c0-2.6-2.1-5.5-4.9-5.5H88.3a9.17,9.17,0,0,1-6.1-2.4,10.73,10.73,0,0,1-3.7-8.3V67.9c0-2.7,2-2.7,4.1-2.7h56.1c1.7,0,2.2,1.3,2.2,3s-.5,3-2.2,3H84.6v9.1c0,2.4,2.2,3.8,4.3,3.8h43.7c6.2,0,11,5.5,11,11.5v2Z"/><path id="_4" data-name="4" class="cls-1" d="M7.1,67.4V79.2a5,5,0,0,0,5,4.9h48V67.4c0-1.7,1.3-2.2,3-2.2s3,.5,3,2.2v39.7c0,1.7-1.3,2.2-3,2.2s-3-.6-3-2.2v-17H12.4A11.14,11.14,0,0,1,1.1,79.2V67.4c0-1.7,1.3-2.2,3-2.2S7.1,65.7,7.1,67.4Z"/><path id="У" class="cls-1" d="M5.5,46.3c-1.6,0-2.2-1.5-2.2-3.1S3.8,40,5.5,40H48.2c5.2,0,10.9-5.5,10.9-10.8v-2H11.4C5.4,27.2,0,22.5,0,16.3V4.5C0,2.8,1.3,2.3,3,2.3s3,.5,3,2.2V16.3a5,5,0,0,0,5,4.9H59V4.5c0-1.8,1.5-2.2,3-2.2s3,.6,3,2.2V30c0,8.5-8.4,16.4-16.9,16.4C34,46.3,19.8,46.3,5.5,46.3Z"/><path id="Ф" class="cls-1" d="M95.7,2.2h12.6c0-1.8,1.5-2.2,3-2.2s3,.5,3,2.2h12.8c8.6,0,16.8,7.8,16.8,16.4V30c0,8.6-8.2,16.4-16.8,16.4H114.3c0,1.6-1.4,2.2-3,2.2s-3-.6-3-2.2H95.7c-8.5,0-16.9-7.9-16.9-16.4V18.6C78.7,10.1,87.2,2.2,95.7,2.2Zm18.6,6.1V40.1h12.8c5.8,0,10.7-5.3,10.7-11.2V19.4c0-5.6-5.1-11.1-10.7-11.1Zm-6,31.7V8.2H95.7c-5.6,0-10.9,5.6-10.9,11.1v9.8c0,5.3,5.7,10.8,10.9,10.8l12.6.1Z"/><path id="А" class="cls-1" d="M151.5,41.8c7.4-9.9,18-25,25.4-34.9,4.7-6.3,15.2-6.3,19.9,0,7.4,9.8,17.8,24.8,25.2,34.7,1,1.3.2,2.6-1.1,3.5s-2.7,1.4-3.7.1c-7-9.4-17-23.9-24.1-33.3-3.4-4.5-9.1-4.5-12.5,0-7.1,9.4-17.2,24-24.3,33.4-1,1.3-2.4,1-3.7,0S150.5,43.1,151.5,41.8Zm33-14.7h4.6c1.7,0,2.2,1.4,2.2,3s-.6,3-2.2,3h-4.6c-1.6,0-2.2-1.4-2.2-3S182.9,27.1,184.5,27.1Z"/></g></g></g></svg>