<svg id="Слой_1" data-name="Слой 1" xmlns="http://www.w3.org/2000/svg" viewBox="0 0 243 218.11"><defs><style>.cls-1{fill:#afc422;}.cls-1,.cls-2,.cls-4,.cls-5{fill-rule:evenodd;}.cls-2{fill:#156a31;}.cls-3{fill:#52a939;}.cls-4{fill:#703e21;}.cls-5{fill:#ab542c;}.cls-6{fill:#434242;}</style></defs><g id="Layer_1"><polygon class="cls-1" points="175.47 105.51 118.21 97.77 73.45 103.38 73.28 143.75 121.75 161.21 175.64 140.97 175.47 105.51"/><polygon class="cls-2" points="62.45 107.75 121.21 101 180.46 110.04 182.07 131.87 120.25 155.22 62.28 136.38 62.45 107.75"/><path class="cls-3" d="M121.21,144.14l-54-15.93c-.76-.08-1.33-.4-1.33-1.22V9c0-1,.28-1.7,1.25-1.7H176.21c1,0,1.24.74,1.24,1.7V127c0,.82-.56,1.14-1.33,1.22l-54,15.93A1.67,1.67,0,0,1,121.21,144.14Zm.49-133.43H69.28V125.29c10.52,3.09,42.83,12.64,52.42,15.48,9.55-2.84,41.86-12.39,52.38-15.48V10.71Z"/><path class="cls-4" d="M78.81,39.12l-4.57-2.07-5.58-.4,5.58.4L74,31.72l-5.33,4.93-6.52,4.54L58.6,43.54l0,1.87,3.77,1.9L71,50l7.85-10.88L93.58,55.59l17.68,4.31h0l35.44-7.57,35.71,18.28-22.3-11.42L187,48.53l11.42,2.86-4,9.81-34.24-2,34.24,2-11.94,9.41L143.1,62.93l3.6-10.6-7.23,21.26,14.14,4.84L133.49,91.19,119.23,71.12h0l-8.48,4.48h0l-11,5.81L81.56,86.06l-3.49,4.56-4.28.85.62-3.6L88,78.77l2.55-1.07L81.7,62.14,71,50Zm90.05,52.27L170,95.07l-3.55-.48L147.29,82.43l6.32-4L164.44,92Z"/><polygon class="cls-5" points="78.81 39.12 74.24 37.05 68.66 36.65 62.14 41.19 62.34 47.31 70.96 50 78.81 39.12"/><polygon class="cls-4" points="62.14 41.19 58.6 43.54 58.57 45.41 62.34 47.31 62.14 41.19"/><polygon class="cls-5" points="110.75 75.6 93.58 55.59 70.96 50 81.7 62.13 90.52 77.7 110.75 75.6"/><polygon class="cls-4" points="99.78 81.41 81.56 86.06 74.41 87.87 87.96 78.78 90.52 77.7 110.75 75.6 99.78 81.41"/><polygon class="cls-4" points="93.58 55.59 111.27 59.9 119.23 71.12 110.75 75.6 93.58 55.59"/><polygon class="cls-5" points="133.49 91.19 111.27 59.9 146.7 52.33 133.49 91.19"/><polygon class="cls-4" points="153.61 78.44 139.47 73.59 133.49 91.19 153.61 78.44"/><polygon class="cls-5" points="166.48 94.59 147.29 82.43 153.61 78.44 166.48 94.59"/><polygon class="cls-4" points="143.1 62.93 182.41 70.61 146.7 52.33 143.1 62.93"/><polygon class="cls-5" points="194.35 61.2 160.11 59.19 182.41 70.61 194.35 61.2"/><polygon class="cls-4" points="186.95 48.53 160.11 59.19 194.35 61.2 186.95 48.53"/><polygon class="cls-5" points="186.95 48.53 194.35 61.2 198.37 51.39 186.95 48.53"/><polygon class="cls-4" points="168.87 91.39 170.03 95.07 166.48 94.59 164.44 92.01 168.87 91.39"/><polygon class="cls-5" points="73.79 91.47 74.41 87.87 81.56 86.06 78.07 90.62 73.79 91.47"/><polygon class="cls-4" points="78.81 39.12 93.58 55.59 70.96 50 78.81 39.12"/><polygon class="cls-4" points="74.24 37.05 73.99 31.72 68.66 36.65 74.24 37.05"/><path class="cls-6" d="M209.34,187.06h15.25c4.17,0,8.17,3.8,8.17,8v5.56c0,4.17-4,7.94-8.17,7.94H209.34c-4.11,0-8.25-3.83-8.25-7.94V195C201.09,190.91,205.23,187.06,209.34,187.06ZM208,196.27h17.83c.79,0,1.08.65,1.08,1.45s-.29,1.47-1.08,1.47H208c-.79,0-1-.65-1-1.47S207.22,196.27,208,196.27ZM224.59,190H209.34a5.74,5.74,0,0,0-5.3,5.44v4.76a5.82,5.82,0,0,0,5.3,5.28h15.25a5.49,5.49,0,0,0,5.25-5.48v-4.56A5.63,5.63,0,0,0,224.59,190Z"/><path class="cls-6" d="M131.05,188.14v5.75a2.41,2.41,0,0,0,2.44,2.38h23.38v-8.13c0-.83.63-1.08,1.45-1.08s1.47.25,1.47,1.08v19.33c0,.82-.65,1.05-1.47,1.05s-1.45-.26-1.45-1.05v-8.28H133.66a5.46,5.46,0,0,1-5.53-5.3v-5.75c0-.83.62-1.08,1.47-1.08S131.05,187.31,131.05,188.14Z"/><path class="cls-6" d="M197.3,202.85a5.58,5.58,0,0,1-5.36,5.67H168c-.82,0-1.08-.63-1.08-1.45s.26-1.47,1.08-1.47h24.21a2.74,2.74,0,0,0,2.38-2.75v-1a2.66,2.66,0,0,0-2.38-2.69H170.45a4.4,4.4,0,0,1-3-1.19,5.16,5.16,0,0,1-1.85-4v-5.58c0-1.33,1-1.33,2-1.33h27.29c.83,0,1.05.65,1.05,1.47s-.22,1.45-1.05,1.45H168.55v4.45a2,2,0,0,0,2.13,1.84h21.26a5.54,5.54,0,0,1,5.36,5.61Z"/><path class="cls-6" d="M92.92,187.06H108.2c4.17,0,8.17,3.8,8.17,8v5.56c0,4.17-4,7.94-8.17,7.94H92.92c-4.11,0-8.22-3.83-8.22-7.94V195C84.7,190.91,88.81,187.06,92.92,187.06Zm-1.3,9.21h17.8c.82,0,1.08.65,1.08,1.45s-.26,1.47-1.08,1.47H91.62c-.79,0-1.08-.65-1.08-1.47S90.8,196.27,91.62,196.27ZM108.2,190H92.92a5.74,5.74,0,0,0-5.3,5.44v4.76a5.85,5.85,0,0,0,5.3,5.28H108.2a5.49,5.49,0,0,0,5.22-5.48v-4.56A5.6,5.6,0,0,0,108.2,190Z"/><path class="cls-6" d="M17.92,187.06H33.2a8.43,8.43,0,0,1,8.13,8v5.56c0,4.17-4,7.94-8.13,7.94H17.92c-4.11,0-8.22-3.83-8.22-7.94V195C9.7,190.91,13.81,187.06,17.92,187.06Zm-1.3,9.21h17.8c.82,0,1.07.65,1.07,1.45s-.28,1.47-1.07,1.47H16.62c-.8,0-1.08-.65-1.08-1.47S15.79,196.27,16.62,196.27ZM33.2,190H17.92a5.74,5.74,0,0,0-5.3,5.44v4.76a5.85,5.85,0,0,0,5.3,5.28H33.2A5.49,5.49,0,0,0,38.41,200v-4.56A5.59,5.59,0,0,0,33.2,190Z"/><path class="cls-6" d="M55.42,187.06h6.15c0-.85.71-1.08,1.45-1.08s1.47.23,1.47,1.08H70.7c4.17,0,8.14,3.8,8.14,8v5.56c0,4.17-4,7.94-8.14,7.94H64.49c0,.82-.68,1.07-1.47,1.07s-1.45-.25-1.45-1.07H55.42c-4.11,0-8.22-3.83-8.22-7.94V195C47.2,190.91,51.31,187.06,55.42,187.06ZM64.49,190v15.48H70.7A5.49,5.49,0,0,0,75.92,200v-4.56A5.6,5.6,0,0,0,70.7,190Zm-2.92,15.48V190H55.42a5.74,5.74,0,0,0-5.3,5.44v4.76a5.85,5.85,0,0,0,5.3,5.28Z"/></g></svg>