<svg id="Слой_1" data-name="Слой 1" xmlns="http://www.w3.org/2000/svg" viewBox="0 0 235 223"><defs><style>.cls-1{fill:#f5f5f5;}.cls-1,.cls-2,.cls-3,.cls-5,.cls-6{fill-rule:evenodd;}.cls-2{fill:#afc422;}.cls-3{fill:#156a31;}.cls-4{fill:#52a939;}.cls-5{fill:#703e21;}.cls-6{fill:#ab542c;}.cls-7{fill:#434242;}</style></defs><g id="Layer_1"><polygon class="cls-1" points="178.66 4.89 52.52 5.23 52.88 153.91 116.01 172.96 179.03 153.59 178.66 4.89"/><polygon class="cls-2" points="169.39 110.39 112.13 102.66 67.34 108.27 67.2 148.63 115.67 166.1 169.53 145.86 169.39 110.39"/><polygon class="cls-3" points="56.34 112.64 115.1 105.89 174.35 114.93 175.96 136.76 114.17 160.12 56.2 141.26 56.34 112.64"/><path class="cls-4" d="M115.13,149l-54-15.93c-.79-.08-1.33-.4-1.33-1.22V13.93c0-1,.28-1.7,1.22-1.7H170.12c.94,0,1.22.74,1.22,1.7v118c0,.82-.54,1.14-1.33,1.22L116,149A1.57,1.57,0,0,1,115.13,149Zm.46-133.43H63.2V130.18c10.52,3.09,42.83,12.64,52.39,15.48,9.55-2.84,41.86-12.39,52.38-15.48V15.6Z"/><path class="cls-5" d="M72.7,44l-4.57-2.07-5.55-.4,5.55.4-.22-5.33-5.33,4.93-6.52,4.54-3.57,2.35V50.3l3.74,1.9,8.62,2.69L72.7,44,87.49,60.48l17.66,4.31h0l35.47-7.57L176.3,75.5,154,64.08l26.87-10.66,11.39,2.86-4,9.81-34.27-2,34.27,2-12,9.41L137,67.82l3.6-10.6-7.23,21.26,14.14,4.84L127.38,96.08,113.12,76h0l-8.45,4.48h0l-11,5.81L75.48,91,72,95.51l-4.31.85.65-3.6,13.55-9.1,2.52-1.07L75.62,67,64.85,54.89Zm90.05,52.27,1.19,3.68-3.54-.48L141.21,87.32l6.32-4,10.8,13.58Z"/><polygon class="cls-6" points="72.7 44.01 68.13 41.94 62.58 41.54 56.06 46.08 56.23 52.2 64.85 54.89 72.7 44.01"/><polygon class="cls-5" points="56.06 46.08 52.49 48.43 52.49 50.3 56.23 52.2 56.06 46.08"/><polygon class="cls-6" points="104.67 80.49 87.49 60.48 64.85 54.89 75.62 67.03 84.41 82.59 104.67 80.49"/><polygon class="cls-5" points="93.7 86.3 75.48 90.95 68.33 92.76 81.88 83.67 84.41 82.59 104.67 80.49 93.7 86.3"/><polygon class="cls-5" points="87.49 60.48 105.15 64.79 113.12 76.01 104.67 80.49 87.49 60.48"/><polygon class="cls-6" points="127.38 96.08 105.15 64.79 140.62 57.22 127.38 96.08"/><polygon class="cls-5" points="147.53 83.32 133.39 78.48 127.38 96.08 147.53 83.32"/><polygon class="cls-6" points="160.4 99.48 141.21 87.32 147.53 83.32 160.4 99.48"/><polygon class="cls-5" points="137.02 67.82 176.3 75.5 140.62 57.22 137.02 67.82"/><polygon class="cls-6" points="188.27 66.09 154 64.08 176.3 75.5 188.27 66.09"/><polygon class="cls-5" points="180.87 53.42 154 64.08 188.27 66.09 180.87 53.42"/><polygon class="cls-6" points="180.87 53.42 188.27 66.09 192.26 56.28 180.87 53.42"/><polygon class="cls-5" points="162.75 96.28 163.94 99.96 160.4 99.48 158.33 96.9 162.75 96.28"/><polygon class="cls-6" points="67.68 96.36 68.33 92.76 75.48 90.95 71.99 95.51 67.68 96.36"/><polygon class="cls-5" points="72.7 44.01 87.49 60.48 64.85 54.89 72.7 44.01"/><polygon class="cls-5" points="68.13 41.94 67.91 36.61 62.58 41.54 68.13 41.94"/><path class="cls-7" d="M35.93,205.44a8.44,8.44,0,0,1-8.13,8H12.52c-4.11,0-8.22-3.83-8.22-8V193c0-.8.65-1.05,1.44-1.05s1.48.25,1.48,1.05v12c0,2.58,2.8,5.42,5.33,5.42H27.83c2.8,0,5.18-2.72,5.18-5.62V193c0-.8.65-1.05,1.48-1.05s1.44.25,1.44,1.05ZM50.79,192H73.52c.79,0,1.08.65,1.08,1.47s-.29,1.45-1.08,1.45H50.79a5.74,5.74,0,0,0-5.3,5.44v.82H72.3c.79,0,1.08.68,1.08,1.48s-.29,1.47-1.08,1.47H45.49v8.25c0,.82-.66,1.08-1.45,1.08s-1.47-.26-1.47-1.08V199.91C42.57,195.8,46.68,192,50.79,192Z"/><path class="cls-7" d="M77.2,211.22c3.6-4.79,8.74-12.19,12.36-17a6.27,6.27,0,0,1,9.7,0c3.63,4.79,8.64,12.11,12.24,16.9.49.62.12,1.25-.51,1.73s-1.33.65-1.81,0c-3.43-4.57-8.28-11.65-11.71-16.19a3.65,3.65,0,0,0-6.12,0C87.92,201.25,83,208.42,79.53,213c-.48.62-1.16.45-1.82,0S76.72,211.85,77.2,211.22Zm16.08-7.17h2.24c.82,0,1.07.65,1.07,1.48S96.31,207,95.52,207H93.28c-.8,0-1-.65-1-1.44S92.48,204.05,93.28,204.05Z"/><path class="cls-7" d="M203.91,192h15.28c4.17,0,8.14,3.8,8.14,8v5.53c0,4.17-4,8-8.14,8H203.91c-4.11,0-8.22-3.83-8.22-8v-5.53C195.69,195.8,199.8,192,203.91,192Zm-1.3,9.18h17.8c.82,0,1.08.68,1.08,1.48s-.29,1.47-1.08,1.47h-17.8c-.79,0-1.08-.68-1.08-1.47S201.79,201.13,202.61,201.13Zm16.58-6.26H203.91a5.74,5.74,0,0,0-5.3,5.44v4.76a5.81,5.81,0,0,0,5.3,5.27h15.28a5.48,5.48,0,0,0,5.22-5.47v-4.56A5.6,5.6,0,0,0,219.19,194.87Z"/><path class="cls-7" d="M125.65,193v5.75a2.36,2.36,0,0,0,2.41,2.35h23.38V193c0-.83.66-1.08,1.48-1.08s1.44.25,1.44,1.08v19.3c0,.85-.62,1.08-1.44,1.08s-1.48-.26-1.48-1.08v-8.25H128.26a5.46,5.46,0,0,1-5.53-5.3V193c0-.83.62-1.08,1.44-1.08S125.65,192.2,125.65,193Z"/><path class="cls-7" d="M191.87,207.74a5.57,5.57,0,0,1-5.33,5.67h-24c-.82,0-1.08-.63-1.08-1.45s.26-1.47,1.08-1.47h24.23a2.74,2.74,0,0,0,2.36-2.75v-1a2.62,2.62,0,0,0-2.36-2.69H165a4.46,4.46,0,0,1-3-1.19,5.14,5.14,0,0,1-1.82-4v-5.58c0-1.33.94-1.33,2-1.33h27.3c.82,0,1.07.65,1.07,1.47s-.25,1.45-1.07,1.45H163.15v4.45a1.93,1.93,0,0,0,2.1,1.81h21.29a5.57,5.57,0,0,1,5.33,5.64Z"/></g></svg>