<svg id="Слой_1" data-name="Слой 1" xmlns="http://www.w3.org/2000/svg" viewBox="0 0 240 223"><defs><style>.cls-1{fill:#f5f5f5;}.cls-1,.cls-2,.cls-3,.cls-5,.cls-6{fill-rule:evenodd;}.cls-2{fill:#afc422;}.cls-3{fill:#156a31;}.cls-4{fill:#52a939;}.cls-5{fill:#703e21;}.cls-6{fill:#ab542c;}.cls-7{fill:#434242;}</style></defs><g id="Layer_1"><polygon class="cls-1" points="181.46 4.89 55.32 5.23 55.66 153.91 118.79 172.96 181.83 153.59 181.46 4.89"/><polygon class="cls-2" points="172.16 110.39 114.93 102.66 70.14 108.27 70 148.63 118.47 166.1 172.33 145.86 172.16 110.39"/><polygon class="cls-3" points="59.15 112.64 117.91 105.89 177.15 114.93 178.77 136.76 116.97 160.12 58.98 141.26 59.15 112.64"/><path class="cls-4" d="M117.94,149l-54-15.93c-.77-.08-1.34-.4-1.34-1.22V13.93c0-1,.29-1.7,1.25-1.7H172.93c.93,0,1.22.74,1.22,1.7v118c0,.82-.57,1.14-1.34,1.22l-54,15.93A1.53,1.53,0,0,1,117.94,149Zm.45-133.43H66V130.18c10.51,3.09,42.83,12.64,52.41,15.48,9.55-2.84,41.87-12.39,52.38-15.48V15.6Z"/><path class="cls-5" d="M75.5,44l-4.56-2.07-5.59-.4,5.59.4-.26-5.33-5.33,4.93-6.49,4.54-3.57,2.35,0,1.87L59,52.2l8.62,2.69L75.5,44,90.27,60.48,108,64.79h0l35.46-7.57L179.11,75.5,156.8,64.08l26.84-10.66,11.43,2.86-4,9.81-34.27-2,34.27,2-12,9.41-39.29-7.68,3.6-10.6-7.26,21.26,14.15,4.84L130.18,96.08,115.92,76h0l-8.47,4.48h0l-11,5.81L78.28,91l-3.52,4.56-4.28.85.63-3.6,13.58-9.1,2.52-1.07L78.42,67,67.65,54.89Zm90.06,52.27,1.16,3.68-3.52-.48L144,87.32l6.3-4L161.14,96.9Z"/><polygon class="cls-6" points="75.5 44.01 70.94 41.94 65.35 41.54 58.86 46.08 59.03 52.2 67.65 54.89 75.5 44.01"/><polygon class="cls-5" points="58.86 46.08 55.29 48.43 55.26 50.3 59.03 52.2 58.86 46.08"/><polygon class="cls-6" points="107.45 80.49 90.27 60.48 67.65 54.89 78.42 67.03 87.21 82.59 107.45 80.49"/><polygon class="cls-5" points="96.48 86.3 78.28 90.95 71.11 92.76 84.69 83.67 87.21 82.59 107.45 80.49 96.48 86.3"/><polygon class="cls-5" points="90.27 60.48 107.96 64.79 115.92 76.01 107.45 80.49 90.27 60.48"/><polygon class="cls-6" points="130.18 96.08 107.96 64.79 143.42 57.22 130.18 96.08"/><polygon class="cls-5" points="150.31 83.32 136.16 78.48 130.18 96.08 150.31 83.32"/><polygon class="cls-6" points="163.21 99.48 144.01 87.32 150.31 83.32 163.21 99.48"/><polygon class="cls-5" points="139.82 67.82 179.11 75.5 143.42 57.22 139.82 67.82"/><polygon class="cls-6" points="191.07 66.09 156.8 64.08 179.11 75.5 191.07 66.09"/><polygon class="cls-5" points="183.64 53.42 156.8 64.08 191.07 66.09 183.64 53.42"/><polygon class="cls-6" points="183.64 53.42 191.07 66.09 195.07 56.28 183.64 53.42"/><polygon class="cls-5" points="165.56 96.28 166.75 99.96 163.21 99.48 161.13 96.9 165.56 96.28"/><polygon class="cls-6" points="70.48 96.36 71.11 92.76 78.28 90.95 74.76 95.51 70.48 96.36"/><polygon class="cls-5" points="75.5 44.01 90.27 60.48 67.65 54.89 75.5 44.01"/><polygon class="cls-5" points="70.94 41.94 70.68 36.61 65.35 41.54 70.94 41.94"/><path class="cls-7" d="M8.8,213.41c-.79,0-1.08-.74-1.08-1.53s.26-1.54,1.08-1.54H29.61a5.84,5.84,0,0,0,5.3-5.27v-1H11.69a5.47,5.47,0,0,1-5.52-5.3v-5.73c0-.82.65-1.07,1.47-1.07s1.47.25,1.47,1.07v5.73a2.36,2.36,0,0,0,2.41,2.35H34.91V193c0-.86.74-1.08,1.44-1.08s1.48.28,1.48,1.08v12.41c0,4.14-4.11,8-8.22,8Z"/><path class="cls-7" d="M79.87,211.22c3.6-4.79,8.76-12.19,12.36-17a6.29,6.29,0,0,1,9.72,0c3.6,4.79,8.64,12.11,12.24,16.9.49.62.12,1.25-.53,1.73s-1.34.65-1.82,0c-3.43-4.57-8.28-11.65-11.71-16.19a3.63,3.63,0,0,0-6.09,0c-3.46,4.54-8.42,11.71-11.82,16.27-.48.62-1.19.45-1.82,0S79.38,211.85,79.87,211.22ZM96,204.05h2.24c.79,0,1.05.65,1.05,1.48S99,207,98.21,207H96c-.8,0-1.08-.65-1.08-1.44S95.14,204.05,96,204.05Z"/><path class="cls-7" d="M206.57,192h15.28c4.17,0,8.17,3.8,8.17,8v5.53c0,4.17-4,8-8.17,8H206.57c-4.11,0-8.22-3.83-8.22-8v-5.53C198.35,195.8,202.46,192,206.57,192Zm-1.3,9.18H223.1c.79,0,1.05.68,1.05,1.48s-.26,1.47-1.05,1.47H205.27c-.79,0-1.08-.68-1.08-1.47S204.48,201.13,205.27,201.13Zm16.58-6.26H206.57a5.74,5.74,0,0,0-5.3,5.44v4.76a5.84,5.84,0,0,0,5.3,5.27h15.28a5.48,5.48,0,0,0,5.22-5.47v-4.56A5.6,5.6,0,0,0,221.85,194.87Z"/><path class="cls-7" d="M128.31,193v5.75a2.39,2.39,0,0,0,2.44,2.35h23.36V193c0-.83.65-1.08,1.47-1.08s1.47.25,1.47,1.08v19.33c0,.82-.65,1-1.47,1s-1.47-.26-1.47-1v-8.28H130.92a5.46,5.46,0,0,1-5.53-5.3V193c0-.83.62-1.08,1.45-1.08S128.31,192.2,128.31,193Z"/><path class="cls-7" d="M194.53,207.74a5.57,5.57,0,0,1-5.33,5.67h-24c-.82,0-1.08-.63-1.08-1.45s.23-1.47,1.08-1.47h24.21a2.74,2.74,0,0,0,2.38-2.75v-1a2.64,2.64,0,0,0-2.38-2.69H167.68a4.46,4.46,0,0,1-3-1.19,5.23,5.23,0,0,1-1.82-4v-5.58c0-1.33.94-1.33,2-1.33h27.3c.82,0,1.07.65,1.07,1.47s-.25,1.45-1.07,1.45H165.81v4.45a2,2,0,0,0,2.1,1.81H189.2a5.57,5.57,0,0,1,5.33,5.64Z"/><path class="cls-7" d="M52.68,192h6.15c0-.85.71-1.08,1.45-1.08s1.47.23,1.47,1.08H68c4.17,0,8.14,3.8,8.14,8v5.53c0,4.17-4,8-8.14,8H61.75c0,.79-.65,1.07-1.47,1.07s-1.45-.25-1.45-1.07H52.68c-4.11,0-8.22-3.83-8.22-8v-5.53C44.46,195.8,48.57,192,52.68,192Zm9.07,2.92v15.47H68a5.48,5.48,0,0,0,5.22-5.47v-4.56A5.6,5.6,0,0,0,68,194.87Zm-2.92,15.47V194.87H52.68a5.74,5.74,0,0,0-5.3,5.44v4.76a5.84,5.84,0,0,0,5.3,5.27Z"/></g></svg>