<svg xmlns="http://www.w3.org/2000/svg" viewBox="0 0 380.9 40.3"><defs><style>.cls-1{fill:#fefefe;}</style></defs><g id="Слой_2" data-name="Слой 2"><g id="эфэ_уфа_ufa_450" data-name="эфэ, уфа, ufa 450"><path id="_0" data-name=" 0" class="cls-1" d="M340.9,1.8H367c7.1,0,13.9,6.5,13.9,13.6v9.5c0,7.1-6.8,13.6-13.9,13.6H340.9c-7,0-14-6.6-14-13.6V15.4C326.8,8.4,333.8,1.8,340.9,1.8Zm-2.3,15.7H369c1.4,0,1.8,1.1,1.8,2.5s-.5,2.5-1.8,2.5H338.6c-1.4,0-1.8-1.1-1.8-2.5S337.3,17.5,338.6,17.5ZM366.9,6.8H340.8c-4.6,0-9,4.6-9,9.3v8.1c0,4.4,4.7,9,9,9h26.1c4.8,0,8.9-4.4,8.9-9.3V16.1C375.9,11.4,371.6,6.8,366.9,6.8Z"/><path id="_4" data-name=" 4" class="cls-1" d="M207.2,3.6v9.8a4.06,4.06,0,0,0,4.1,4.1h39.9V3.6c0-1.4,1.1-1.8,2.5-1.8s2.5.4,2.5,1.8v33c0,1.4-1.1,1.8-2.5,1.8s-2.5-.5-2.5-1.8V22.5H211.6a9.18,9.18,0,0,1-9.4-9V3.7c0-1.4,1.1-1.8,2.5-1.8S207.2,2.2,207.2,3.6Z"/><path id="_5" data-name=" 5" class="cls-1" d="M320.3,28.7c0,5.1-4,9.7-9.1,9.7h-41c-1.4,0-1.8-1.1-1.8-2.5s.4-2.5,1.8-2.5h41.3c2.3,0,4.1-2.5,4.1-4.7V27.1c0-2.2-1.8-4.6-4.1-4.6h-37a7.44,7.44,0,0,1-5.1-2,8.64,8.64,0,0,1-3.1-6.9V4.1c0-2.3,1.6-2.3,3.4-2.3h46.6c1.4,0,1.8,1.1,1.8,2.5s-.4,2.5-1.8,2.5h-45v7.6a3.43,3.43,0,0,0,3.6,3.1h36.3c5.2,0,9.1,4.6,9.1,9.6Z"/><path id="э" class="cls-1" d="M142.1,1.8h26.1c7.1,0,13.9,6.5,13.9,13.6v9.5c0,7.1-6.8,13.6-13.9,13.6H142.1c-7,0-14-6.6-14-13.6V15.4C128.1,8.4,135.1,1.8,142.1,1.8Zm-2.2,15.7h30.4c1.4,0,1.8,1.1,1.8,2.5s-.5,2.5-1.8,2.5H139.9c-1.4,0-1.8-1.1-1.8-2.5S138.5,17.5,139.9,17.5ZM168.2,6.8H142.1c-4.6,0-9,4.6-9,9.3v8.1c0,4.4,4.7,9,9,9h26.1c4.8,0,8.9-4.4,8.9-9.3V16.1C177.1,11.4,172.9,6.8,168.2,6.8Z"/><path id="э-2" class="cls-1" d="M14,1.8H40.1C47.2,1.8,54,8.3,54,15.4v9.5c0,7.1-6.8,13.6-13.9,13.6H14c-7,0-14-6.6-14-13.6V15.4C0,8.4,7,1.8,14,1.8ZM11.8,17.5H42.2c1.4,0,1.8,1.1,1.8,2.5s-.5,2.5-1.8,2.5H11.8c-1.4,0-1.8-1.1-1.8-2.5S10.4,17.5,11.8,17.5ZM40.1,6.8H14c-4.6,0-9,4.6-9,9.3v8.1c0,4.4,4.7,9,9,9H40.1c4.8,0,8.9-4.4,8.9-9.3V16.1C49,11.4,44.8,6.8,40.1,6.8Z"/><path id="ф" class="cls-1" d="M78.1,1.8H88.6C88.6.3,89.8,0,91.1,0s2.5.4,2.5,1.8h10.6c7.1,0,13.9,6.5,13.9,13.6v9.5c0,7.1-6.8,13.6-13.9,13.6H93.5c0,1.3-1.1,1.8-2.5,1.8s-2.5-.5-2.5-1.8H78c-7,0-14-6.6-14-13.6V15.4C64,8.4,71,1.8,78.1,1.8Zm15.4,5V33.2h10.6c4.8,0,8.9-4.4,8.9-9.3V16.1c0-4.7-4.2-9.3-8.9-9.3ZM88.6,33.2V6.8H78.1c-4.6,0-9,4.6-9,9.3v8.1c0,4.4,4.7,9,9,9Z"/></g></g></svg>