<svg xmlns="http://www.w3.org/2000/svg" viewBox="0 0 219.2 109.3"><defs><style>.cls-1{fill:#fefefe;}</style></defs><g id="Слой_2" data-name="Слой 2"><g id="эфэ_уфа_ufa_450_белые_вертикально" data-name="эфэ, уфа, ufa 450 белые вертикально"><g id="ЭФЭ_450" data-name="ЭФЭ 450"><path id="_0" data-name="0" class="cls-1" d="M171,65.2h31.4c8.6,0,16.8,7.8,16.8,16.4V93c0,8.5-8.2,16.3-16.8,16.3H171c-8.4,0-16.9-7.9-16.9-16.3V81.6C154.1,73.1,162.5,65.2,171,65.2Zm-2.7,18.9h36.6c1.6,0,2.2,1.4,2.2,3s-.6,3-2.2,3H168.3c-1.6,0-2.2-1.3-2.2-3S166.6,84.1,168.3,84.1Zm34-12.9H170.9c-5.6,0-10.9,5.6-10.9,11.1v9.8c0,5.3,5.7,10.8,10.9,10.8h31.4c5.8,0,10.7-5.3,10.7-11.2V82.3C213.1,76.7,208,71.2,202.3,71.2Z"/><path id="_5" data-name="5" class="cls-1" d="M142.6,97.6c0,6.1-4.8,11.7-11,11.7H82.3c-1.7,0-2.2-1.3-2.2-3s.5-3,2.2-3H132c2.7,0,4.9-3.1,4.9-5.7v-2c0-2.6-2.1-5.5-4.9-5.5H87.4a9.17,9.17,0,0,1-6.1-2.4,10.68,10.68,0,0,1-3.8-8.3V67.9c0-2.7,2-2.7,4.1-2.7h56c1.7,0,2.2,1.3,2.2,3s-.5,3-2.2,3H83.5v9.1c0,2.4,2.2,3.8,4.3,3.8h43.7c6.2,0,11,5.5,11,11.5l.1,2Z"/><path id="_4" data-name="4" class="cls-1" d="M6.6,67.4V79.2a4.93,4.93,0,0,0,5,4.9h48V67.4c0-1.7,1.3-2.2,3-2.2s3,.5,3,2.2v39.7c0,1.7-1.3,2.2-3,2.2s-3-.5-3-2.2v-17H11.9C5.9,90.1.5,85.4.5,79.2V67.4c0-1.7,1.3-2.2,3-2.2S6.6,65.7,6.6,67.4Z"/><path id="Э" class="cls-1" d="M171,2.2h31.4c8.6,0,16.8,7.8,16.8,16.4V30c0,8.6-8.2,16.4-16.8,16.4H171c-8.4,0-16.9-7.9-16.9-16.4V18.6C154.1,10.1,162.5,2.2,171,2.2Zm-2.7,18.9h36.6c1.6,0,2.2,1.4,2.2,3s-.6,3-2.2,3H168.3c-1.6,0-2.2-1.4-2.2-3S166.6,21.1,168.3,21.1Zm34-12.8H170.9c-5.6,0-10.9,5.6-10.9,11.1v9.8c0,5.3,5.7,10.8,10.9,10.8h31.4c5.8,0,10.7-5.3,10.7-11.2V19.4C213.1,13.7,208,8.3,202.3,8.3Z"/><path id="Ф" class="cls-1" d="M93.9,2.2h12.6c0-1.8,1.5-2.2,3-2.2s3,.5,3,2.2h12.8c8.6,0,16.8,7.8,16.8,16.4V30c0,8.6-8.2,16.4-16.8,16.4H112.5c0,1.6-1.4,2.2-3,2.2s-3-.6-3-2.2H93.9C85.4,46.4,77,38.5,77,30V18.6C77,10.1,85.5,2.2,93.9,2.2Zm18.6,6.1V40.1h12.8c5.8,0,10.7-5.3,10.7-11.2V19.4c0-5.6-5.1-11.1-10.7-11.1Zm-6,31.7V8.2H93.9C88.3,8.2,83,13.8,83,19.3v9.8c0,5.3,5.7,10.8,10.9,10.8l12.6.1Z"/><path id="Э-2" data-name="Э" class="cls-1" d="M16.9,2.2H48.3c8.5,0,16.8,7.8,16.8,16.4V30c0,8.6-8.2,16.4-16.8,16.4H16.9C8.5,46.4,0,38.5,0,30V18.6C0,10.1,8.4,2.2,16.9,2.2ZM14.2,21.1H50.8c1.6,0,2.2,1.4,2.2,3s-.6,3-2.2,3H14.2c-1.6,0-2.2-1.4-2.2-3S12.6,21.1,14.2,21.1ZM48.3,8.3H16.9C11.4,8.3,6,13.9,6,19.4v9.8C6,34.5,11.7,40,16.9,40H48.3C54.1,40,59,34.7,59,28.8V19.4C59,13.7,53.9,8.3,48.3,8.3Z"/></g></g></g></svg>